<svg xmlns="http://www.w3.org/2000/svg" width="87" height="87" viewBox="0 0 87 87">
    <g fill="#FFF" fill-rule="evenodd">
        <path d="M42 67h3v-6h-3zM56.328 31.881c1.3 3.95 1.352 8.192.17 12.185a19.994 19.994 0 0 0-4.953 2.135 23.72 23.72 0 0 0-2.924-7.72 20.916 20.916 0 0 1 7.707-6.6M43.664 24.868a25.141 25.141 0 0 1 5.029 8.56c-.718.706-1.4 1.452-2.025 2.246a24.59 24.59 0 0 0-1.864-2.066 1.63 1.63 0 0 0-2.279 0 24.554 24.554 0 0 0-1.864 2.066 24.494 24.494 0 0 0-2.024-2.246 25.155 25.155 0 0 1 5.027-8.56M31 31.881a20.906 20.906 0 0 1 7.709 6.6 23.731 23.731 0 0 0-2.925 7.722 19.97 19.97 0 0 0-4.955-2.137A20.434 20.434 0 0 1 31 31.88M27.132 46.639c7.795.785 14.01 6.88 14.822 14.53-7.795-.785-14.01-6.883-14.822-14.53M43.666 55.14a19.631 19.631 0 0 0-4.922-6.754 20.594 20.594 0 0 1 4.92-11.268 20.594 20.594 0 0 1 4.92 11.268 19.654 19.654 0 0 0-4.918 6.754M45.376 61.17c.811-7.65 7.026-13.747 14.82-14.53-.813 7.648-7.027 13.743-14.82 14.53"/>
        <path d="M43.557 3.277C21.052 3.277 2.741 21.502 2.741 43.9c0 22.4 18.31 40.627 40.816 40.627 22.506 0 40.817-18.227 40.817-40.627 0-22.4-18.311-40.624-40.817-40.624m0 83.704C19.691 86.98.274 67.657.274 43.9.274 20.147 19.691.824 43.557.824S86.84 20.147 86.84 43.901c0 23.756-19.417 43.08-43.283 43.08"/>
    </g>
</svg>
