<svg xmlns="http://www.w3.org/2000/svg" width="87" height="87" viewBox="0 0 87 87">
    <g fill="#FFF" fill-rule="evenodd">
        <path d="M33.979 47.207l18.835.06 5.892 12.162-29.95-.591 4.92-11.072"/>
        <path d="M43.333 3.192c-22.506 0-40.817 18.225-40.817 40.625s18.311 40.626 40.817 40.626c22.505 0 40.815-18.227 40.815-40.626 0-22.4-18.31-40.625-40.815-40.625m0 83.704C19.467 86.896.05 67.573.05 43.816.05 20.064 19.467.74 43.333.74c23.864 0 43.28 19.324 43.28 43.078 0 23.756-19.416 43.079-43.28 43.079"/>
        <path d="M50.965 29.082l-15.242-.107.016-2.66 15.251.106z"/>
        <path d="M62.096 61.274H24.8l12.653-23.235-.125-10.305L40 27.701l.132 10.997-10.847 19.914h28.287L46.446 38.528l.13-10.853 2.673.033-.123 10.15z"/>
    </g>
</svg>
