<svg xmlns="http://www.w3.org/2000/svg" width="87" height="87" viewBox="0 0 87 87">
    <g fill="#FFF" fill-rule="evenodd">
        <path d="M37.373 48L39 49.847 23.66 65 22 63.14zM49.72 35.996c1.627.247 3.183-1.117 3.602-3.856.42-2.737-1.422-7.357-1.527-7.372-.15-.024-3.952 3.741-4.369 6.48-.417 2.737.664 4.498 2.294 4.748M46.647 37.8c0-3.07-2.79-7.822-2.906-7.82-.172 0-3.701 4.75-3.701 7.82 0 3.072 1.476 4.817 3.305 4.817 1.822 0 3.3-1.747 3.302-4.817"/>
        <path d="M36.504 35.598c-.17 0-3.701 4.756-3.703 7.822 0 3.068 1.48 4.821 3.306 4.821 1.823 0 3.303-1.753 3.305-4.82-.002-3.067-2.793-7.825-2.908-7.823M55.402 34.324c-2.756.386-4.142 1.923-3.907 3.549.232 1.622 1.99 2.716 4.745 2.327 2.756-.39 6.576-4.131 6.556-4.287-.015-.102-4.639-1.98-7.394-1.59M49.844 47.561c3.085 0 7.861-3.516 7.861-3.685.002-.115-4.776-2.893-7.86-2.893-3.085 0-4.84 1.473-4.84 3.29 0 1.814 1.755 3.288 4.84 3.288M51.835 50.865c.002-.116-4.776-2.898-7.859-2.898-3.082.004-4.842 1.475-4.842 3.291 0 1.816 1.76 3.293 4.842 3.293 3.083-.004 7.86-3.518 7.86-3.686M55.755 31.777c1.105 1.098 3.064.933 4.932-.927 1.868-1.857 3.072-6.42 3-6.492-.104-.102-5.137.65-7.001 2.51-1.866 1.855-2.037 3.809-.931 4.91"/>
        <path d="M43.518 3.289c-22.505 0-40.816 18.225-40.816 40.624 0 22.4 18.31 40.627 40.816 40.627 22.506 0 40.817-18.227 40.817-40.627 0-22.4-18.311-40.624-40.817-40.624m0 83.704C19.652 86.993.235 67.669.235 43.913.235 20.16 19.652.836 43.518.836S86.801 20.16 86.801 43.913c0 23.756-19.417 43.08-43.283 43.08"/>
    </g>
</svg>
