<svg xmlns="http://www.w3.org/2000/svg" xmlns:xlink="http://www.w3.org/1999/xlink" width="88" height="87" viewBox="0 0 88 87">
    <defs>
        <path id="a" d="M.916.74H87.48v86.156H.916z"/>
    </defs>
    <g fill="none" fill-rule="evenodd">
        <path fill="#FFF" d="M50.523 50.247c-.863 0-1.233.489-1.233 1.078 0 .54.37 1.006 1.233 1.006 1.036 0 1.209-.513 1.209-1.006 0-.538-.173-1.078-1.209-1.078m.91 8.636c-1.477 0-2.735.44-2.71.93.027.516 1.258.882 2.71.882 1.85 0 2.763-.44 2.763-.882 0-.466-.913-.93-2.762-.93m0 4.757c-3.375 0-6.063-1.497-6.063-3.508 0-1.202.962-2.354 2.614-2.55-1.036-.125-2.244-.688-2.244-1.94 0-1.102 1.058-1.742 1.874-1.863-.937-.42-1.502-1.669-1.502-2.7 0-2.062 1.648-3.53 4.262-3.53 1.577 0 2.686.489 3.5 1.25.69-.933 1.973-1.375 3.28-1.228v3.19c-.988-.49-1.75-.369-2.244-.146.023.194.05.442.05.636 0 2.062-1.53 3.508-4.045 3.68l-.689.049c-.787.049-1.233.22-1.233.687 0 .565 1.06.638 2.121.687l1.307.072c3.3.198 5.101 1.62 5.101 3.56 0 2.061-2.71 3.654-6.09 3.654M34.861 31.438c-1.33 0-2.464.86-2.464 2.16 0 1.422 1.134 2.207 2.415 2.207 1.379 0 2.464-.785 2.464-2.207 0-1.254-1.06-2.16-2.415-2.16m-.05 7.409c-3.253 0-5.815-1.964-5.815-5.249 0-3.215 2.612-5.201 5.865-5.201 3.204 0 5.816 1.986 5.816 5.201 0 3.285-2.612 5.249-5.865 5.249M28.937 59.208l-1.743-1.735 31.47-31.32 1.743 1.733z"/>
        <g transform="translate(-.118 .045)">
            <mask id="b" fill="#fff">
                <use xlink:href="#a"/>
            </mask>
            <path fill="#FFF" d="M44.199 3.192c-22.506 0-40.817 18.225-40.817 40.625S21.693 84.443 44.2 84.443s40.815-18.227 40.815-40.626c0-22.4-18.31-40.625-40.815-40.625m0 83.704C20.333 86.896.916 67.573.916 43.816.916 20.064 20.333.74 44.2.74c23.864 0 43.28 19.324 43.28 43.078 0 23.756-19.416 43.079-43.28 43.079" mask="url(#b)"/>
        </g>
    </g>
</svg>
