<svg xmlns="http://www.w3.org/2000/svg" xmlns:xlink="http://www.w3.org/1999/xlink" width="87" height="87" viewBox="0 0 87 87">
    <defs>
        <path id="a" d="M0 .548h86.452V87H0z"/>
    </defs>
    <g fill="none" fill-rule="evenodd">
        <g>
            <mask id="b" fill="#fff">
                <use xlink:href="#a"/>
            </mask>
            <path fill="#FFF" d="M43.226 3.265c-22.334 0-40.51 18.172-40.51 40.51 0 22.334 18.176 40.509 40.51 40.509 22.335 0 40.51-18.175 40.51-40.51 0-22.337-18.175-40.51-40.51-40.51m0 83.736C19.39 87 0 67.609 0 43.774 0 19.937 19.39.548 43.226.548c23.837 0 43.226 19.39 43.226 43.226C86.452 67.61 67.062 87 43.226 87" mask="url(#b)"/>
        </g>
        <path fill="#FFF" d="M40.037 68.14l8.083.01c-1.632-1.085-3.016-3.116-3.016-7.042 0-5.166 3.534-9.308 3.57-9.344 6.098-5.71 4.586-14.75 3.48-21.348-.202-1.203-.39-2.32-.513-3.317-.194-1.533-.378-2.998-.088-5.256l-15.188.002c.147 1.672.13 3.391-.043 5.333-.162 1.79-.436 3.539-.702 5.229-.767 4.863-1.49 9.458.536 14.508.756 1.887 1.902 3.604 3.228 4.84l.025.023c.033.033 3.554 4.06 3.554 9.229 0 3.948-1.28 6.002-2.926 7.132zM53.939 70l-19.64-.03v-2.017l.779-.124c3.005-.478 6.037-.962 6.037-6.822 0-4.211-2.83-7.708-3.019-7.933-1.506-1.413-2.802-3.357-3.653-5.476-2.215-5.522-1.416-10.585-.644-15.477.261-1.663.531-3.377.684-5.105.198-2.212.18-4.108-.058-5.973l-.135-1.036L53.728 20l-.192 1.083c-.463 2.627-.279 4.092-.065 5.789.122.973.306 2.065.502 3.24 1.11 6.614 2.782 16.61-4.016 22.976 0 0-3.007 3.674-3.007 8.02 0 5.883 3.523 6.279 5.625 6.517l1.364.186V70z"/>
        <path fill="#FFF" d="M39.315 52.416c-1.553-1.326-2.9-3.177-3.79-5.216-2.853-6.512-1.04-12.086.113-20.2h16.728c1.16 8.05 4.398 18.516-3.613 25.391-1.61 1.384-3.48 1.607-4.75 1.609-1.268.002-3.084-.218-4.688-1.584"/>
    </g>
</svg>
