<svg xmlns="http://www.w3.org/2000/svg" xmlns:xlink="http://www.w3.org/1999/xlink" width="87" height="87" viewBox="0 0 87 87">
    <defs>
        <path id="a" d="M.676.128h86.562v86.157H.676z"/>
    </defs>
    <g fill="none" fill-rule="evenodd">
        <path fill="#FFF" d="M52.913 48.42c-2.105 0-3.819 1.705-3.819 3.8 0 2.096 1.714 3.802 3.819 3.802a3.814 3.814 0 0 0 3.816-3.802c0-2.095-1.712-3.8-3.816-3.8m0 10.055c-3.467 0-6.285-2.805-6.285-6.255 0-3.45 2.818-6.253 6.285-6.253 3.464 0 6.282 2.804 6.282 6.253 0 3.45-2.818 6.255-6.282 6.255M28.723 59.779l-1.743-1.735 31.47-31.32 1.743 1.733zM33.826 31.207c-2.104 0-3.818 1.706-3.818 3.8 0 2.097 1.714 3.803 3.818 3.803 2.105 0 3.819-1.706 3.819-3.803 0-2.094-1.714-3.8-3.819-3.8m0 10.055c-3.467 0-6.284-2.804-6.284-6.255 0-3.449 2.817-6.253 6.284-6.253 3.467 0 6.285 2.804 6.285 6.253 0 3.45-2.818 6.255-6.285 6.255"/>
        <g transform="translate(-.37 .045)">
            <mask id="b" fill="#fff">
                <use xlink:href="#a"/>
            </mask>
            <path fill="#FFF" d="M43.956 2.58c-22.505 0-40.814 18.226-40.814 40.625 0 22.4 18.309 40.627 40.814 40.627 22.506 0 40.817-18.227 40.817-40.627 0-22.4-18.311-40.624-40.817-40.624m0 83.704c-23.864 0-43.28-19.324-43.28-43.08C.676 19.452 20.092.128 43.956.128c23.866 0 43.283 19.324 43.283 43.077 0 23.756-19.417 43.08-43.283 43.08" mask="url(#b)"/>
        </g>
    </g>
</svg>
